<svg xmlns="http://www.w3.org/2000/svg" width="42" height="43" viewBox="0 0 42 43" fill="none">
    <g clip-path="url(#clip0_5384_920)">
        <path
            d="M24.2172 33.1779C25.4759 36.2901 25.3947 39.6123 24.243 42.5005C21.4064 41.2239 19.0396 38.8908 17.7808 35.7806C16.5221 32.6705 16.6034 29.3482 17.7551 26.4581C20.5917 27.7367 22.9585 30.0678 24.2172 33.1779Z"
            fill="#747C64" />
        <path
            d="M15.0176 32.0342C13.7073 35.1245 11.3008 37.416 8.4444 38.645C7.34227 35.737 7.3165 32.4128 8.62677 29.3244C9.93704 26.2361 12.3435 23.9446 15.1999 22.7136C16.3021 25.6236 16.3278 28.9458 15.0176 32.0342Z"
            fill="#747C64" />
        <path
            d="M9.32254 24.7197C6.21238 25.9764 2.88814 25.8971 0 24.7454C1.27657 21.9088 3.60969 19.542 6.71984 18.2833C9.83 17.0246 13.1523 17.1058 16.0424 18.2575C14.7638 21.0941 12.4327 23.4609 9.32254 24.7197Z"
            fill="#747C64" />
        <path
            d="M10.4683 15.518C7.37795 14.2078 5.08646 11.8013 3.85747 8.94489C6.76543 7.84276 10.0897 7.81699 13.178 9.12726C16.2664 10.4375 18.5579 12.844 19.7888 15.7004C16.8789 16.8025 13.5566 16.8283 10.4683 15.518Z"
            fill="#747C64" />
        <path
            d="M17.7828 9.82303C16.5241 6.71089 16.6053 3.38863 17.757 0.500488C20.5936 1.77706 22.9604 4.11017 24.2192 7.22033C25.4779 10.3305 25.3966 13.6527 24.2449 16.5429C21.4083 15.2643 19.0415 12.9332 17.7828 9.82303Z"
            fill="#747C64" />
        <path
            d="M26.9824 10.9688C28.2927 7.87844 30.6992 5.58695 33.5556 4.35795C34.6577 7.26592 34.6835 10.5902 33.3732 13.6785C32.063 16.7669 29.6565 19.0584 26.8001 20.2893C25.6979 17.3794 25.6722 14.0571 26.9824 10.9688Z"
            fill="#747C64" />
        <path
            d="M32.6775 18.2833C35.7896 17.0246 39.1119 17.1058 42 18.2575C40.7234 21.0941 38.3903 23.4609 35.2802 24.7197C32.17 25.9784 28.8477 25.8971 25.9576 24.7454C27.2362 21.9088 29.5673 19.542 32.6775 18.2833Z"
            fill="#747C64" />
        <path
            d="M31.5337 27.4829C34.624 28.7932 36.9155 31.1997 38.1445 34.0561C35.2365 35.1582 31.9123 35.184 28.824 33.8737C25.7356 32.5634 23.4441 30.157 22.2131 27.3006C25.1231 26.1984 28.4453 26.1727 31.5337 27.4829Z"
            fill="#747C64" />
    </g>
    <defs>
        <clipPath id="clip0_5384_920">
            <rect width="42" height="42" fill="white" transform="translate(0 0.5)" />
        </clipPath>
    </defs>
</svg>