<svg width="125" height="50" viewBox="0 0 125 50" fill="none" xmlns="http://www.w3.org/2000/svg">
<path fill-rule="evenodd" clip-rule="evenodd" d="M49.9984 1.93112C49.8126 1.9409 49.7197 2.03869 49.7197 2.22449C49.6675 4.10855 49.6627 6.75537 49.705 10.1649C49.705 10.1812 49.6887 10.4583 49.6561 10.9961C49.5942 11.9088 50.0962 12.3554 51.1621 12.3358C51.1824 12.3352 51.2026 12.3386 51.2216 12.3459C51.2406 12.3533 51.2578 12.3643 51.2724 12.3785C51.287 12.3926 51.2986 12.4095 51.3066 12.4283C51.3145 12.447 51.3186 12.4671 51.3186 12.4874V12.6585C51.3186 12.7107 51.2908 12.7368 51.2354 12.7368L46.6491 12.7466C46.6115 12.7466 46.5755 12.7316 46.5489 12.705C46.5223 12.6784 46.5073 12.6424 46.5073 12.6048L46.5025 12.3798C46.5025 12.3179 46.535 12.2869 46.6002 12.2869L47.4608 12.2821C47.6696 12.2821 47.8698 12.1996 48.0174 12.0529C48.165 11.9062 48.248 11.7072 48.248 11.4998L48.2382 2.25871C48.2382 2.09899 48.1583 1.99957 47.9986 1.96046C47.7183 1.89526 47.4412 1.87245 47.1674 1.892C46.9685 1.90492 46.7771 1.91255 46.5932 1.91988C45.3846 1.96804 44.4986 2.00335 43.9257 3.44196C43.9159 3.46852 43.9005 3.49269 43.8806 3.51295C43.8607 3.53321 43.8366 3.54912 43.81 3.55969C43.7834 3.57025 43.7547 3.57523 43.7258 3.57432C43.6969 3.57342 43.6684 3.56664 43.6421 3.55441C43.59 3.5316 43.5525 3.49411 43.5297 3.44196C43.5101 3.4061 43.5085 3.35721 43.5248 3.29527C43.8149 2.14463 43.9958 1.38187 44.0675 1.00702C44.1034 0.808179 44.2028 0.770693 44.3658 0.894559L44.7863 1.21237C44.9101 1.3069 45.0487 1.35417 45.2019 1.35417L53.4992 1.34439C53.6111 1.34437 53.7213 1.31215 53.8171 1.25149L54.2424 0.9679C54.4119 0.853814 54.4853 0.899448 54.4625 1.1048L54.2229 3.59353C54.2196 3.61961 54.2033 3.63264 54.174 3.63264H54.0224C53.96 3.63284 53.9 3.60965 53.8545 3.56784C53.8091 3.52603 53.7817 3.46875 53.7779 3.40773C53.7127 2.46896 53.1635 1.98164 52.1302 1.94579C51.1556 1.91319 50.445 1.9083 49.9984 1.93112ZM63.1197 6.43807C64.8832 6.43807 65.8757 6.43155 66.0974 6.41851C66.3223 6.40547 66.4364 6.2865 66.4397 6.06158C66.4657 4.87834 66.4608 3.84667 66.425 2.96657C66.4087 2.49718 66.3354 2.20708 66.205 2.09625C65.9442 1.87459 65.5987 1.76214 65.1684 1.75888C65.0674 1.75888 65.0168 1.70835 65.0168 1.6073V1.45573C65.0168 1.37424 65.0559 1.3335 65.1342 1.3335H69.168C69.2056 1.3335 69.2416 1.34844 69.2682 1.37503C69.2948 1.40162 69.3098 1.43768 69.3098 1.47529V1.6073C69.3098 1.62742 69.3057 1.64733 69.2977 1.66579C69.2898 1.68426 69.2781 1.70089 69.2634 1.71464C69.2487 1.7284 69.2314 1.73899 69.2124 1.74576C69.1935 1.75253 69.1734 1.75533 69.1533 1.75399C68.7426 1.73443 68.4085 1.81918 68.151 2.00824C67.9912 2.12559 67.9081 2.41732 67.9016 2.88345C67.8462 6.67439 67.8462 9.47767 67.9016 11.2933C67.9212 11.9713 68.3319 12.3184 69.1337 12.3347C69.2283 12.338 69.2755 12.3869 69.2755 12.4814V12.6134C69.2755 12.6458 69.2627 12.6769 69.2397 12.6999C69.2168 12.7228 69.1857 12.7357 69.1533 12.7357H65.0608C65.031 12.7357 65.0024 12.7238 64.9813 12.7027C64.9602 12.6816 64.9484 12.653 64.9484 12.6232V12.4716C64.9484 12.3999 64.9842 12.3592 65.0559 12.3494C65.5188 12.2907 65.8937 12.1783 66.1805 12.012C66.3533 11.9142 66.4397 11.7659 66.4397 11.5671V7.49908C66.4397 7.41303 66.4053 7.33043 66.344 7.26913C66.2827 7.20784 66.1994 7.17276 66.1121 7.17149H63.1197C62.269 7.17475 61.2732 7.17638 60.1323 7.17638C60.0886 7.17701 60.0455 7.18611 60.0054 7.20317C59.9653 7.22022 59.929 7.24489 59.8986 7.27576C59.8682 7.30664 59.8442 7.34312 59.8281 7.38311C59.812 7.4231 59.804 7.46583 59.8047 7.50886L59.8145 11.5769C59.8145 11.7757 59.9009 11.924 60.0736 12.0218C60.3605 12.1848 60.7369 12.2956 61.2031 12.3543C61.2748 12.3641 61.3106 12.4048 61.3106 12.4765V12.6281C61.3106 12.6579 61.2988 12.6865 61.2777 12.7076C61.2566 12.7287 61.228 12.7406 61.1982 12.7406L57.1057 12.7503C57.0733 12.7503 57.0422 12.7375 57.0193 12.7145C56.9964 12.6916 56.9835 12.6605 56.9835 12.6281V12.4961C56.9802 12.4016 57.0259 12.3527 57.1204 12.3494C57.9223 12.3331 58.333 11.986 58.3525 11.308C58.4014 9.49234 58.3933 6.68906 58.3281 2.89812C58.3216 2.43199 58.2384 2.14025 58.0787 2.02291C57.8212 1.83385 57.4871 1.7491 57.0764 1.76866C57.0563 1.77 57.0362 1.7672 57.0172 1.76043C56.9983 1.75366 56.981 1.74307 56.9663 1.72931C56.9516 1.71555 56.9399 1.69893 56.9319 1.68046C56.924 1.662 56.9199 1.64209 56.9199 1.62197V1.48996C56.9199 1.45318 56.9342 1.41784 56.9597 1.39138C56.9853 1.36493 57.0201 1.34943 57.0568 1.34816L61.0906 1.33839C61.1688 1.33839 61.2096 1.37913 61.2129 1.46062V1.61219C61.2129 1.71324 61.1623 1.76377 61.0613 1.76377C60.631 1.76703 60.2855 1.88111 60.0247 2.10603C59.8943 2.21685 59.821 2.50696 59.8047 2.97635C59.7721 3.85645 59.7705 4.88812 59.7998 6.07136C59.8031 6.29628 59.9171 6.41525 60.1421 6.42829C60.3637 6.43807 61.3563 6.44133 63.1197 6.43807ZM75.0364 2.43849C75.0364 2.06689 75.2222 1.88435 75.5938 1.89087L75.8287 1.89675C76.3836 1.91091 77.0105 1.92691 77.7158 1.90554C78.811 1.86968 79.4711 2.41078 79.696 3.52883C79.7058 3.58099 79.7351 3.61684 79.784 3.6364C79.846 3.65922 79.8851 3.67063 79.9014 3.67063C80.0807 3.69019 80.1638 3.61847 80.1507 3.45549L80.0138 1.61217C80.0008 1.43615 79.9063 1.34814 79.7303 1.34814H72.3276C72.2918 1.34814 72.269 1.36444 72.2592 1.39704L72.2201 1.51927C72.1842 1.63336 72.225 1.69855 72.3423 1.71485C73.2876 1.8485 73.7293 2.35374 73.6674 3.23058C73.625 3.84991 73.6038 4.16772 73.6038 4.18402C73.6462 8.03364 73.6445 10.3936 73.5989 11.2639C73.5598 12.0267 73.0627 12.3803 72.1076 12.3249C72.0098 12.3217 71.9609 12.3689 71.9609 12.4667V12.6134C71.9609 12.6916 72.0001 12.7308 72.0783 12.7308H80.3268C80.4036 12.7311 80.4787 12.7066 80.5411 12.6609C80.6035 12.6152 80.6501 12.5506 80.6739 12.4765L81.2704 10.5745C81.2998 10.4767 81.2802 10.3903 81.2118 10.3154C81.1792 10.273 81.14 10.2453 81.0944 10.2323C81.0541 10.2174 81.01 10.2165 80.9692 10.2298C80.9284 10.2431 80.8933 10.2698 80.8695 10.3056C80.7596 10.4738 80.6616 10.6336 80.5697 10.7835C80.1219 11.5138 79.8187 12.0083 78.9871 12.0854C77.8592 12.1864 76.8553 12.175 75.9752 12.0511C75.3591 11.9664 75.0511 11.6111 75.0511 10.9852V7.82176C75.0511 7.37519 75.2743 7.15191 75.7209 7.15191H77.9212C78.0972 7.15191 78.2129 7.23666 78.2683 7.40616L78.5763 8.37427C78.6089 8.47206 78.6676 8.53562 78.7524 8.56496C78.8404 8.59429 78.9154 8.57962 78.9773 8.52095C78.9911 8.50868 79.0022 8.49405 79.0098 8.47803C79.0174 8.46201 79.0213 8.44498 79.0213 8.42805V5.17657C79.0213 5.11138 78.9903 5.06738 78.9284 5.04456C78.8828 5.025 78.8355 5.01848 78.7866 5.025C78.7504 5.02797 78.7161 5.04122 78.6882 5.06303C78.6602 5.08484 78.64 5.11419 78.6301 5.14724L78.2928 6.21803C78.2439 6.37775 78.1347 6.45761 77.9652 6.45761H75.5742C75.2157 6.45761 75.0364 6.27996 75.0364 5.92466V2.43849ZM91.8343 20.0106C91.6485 20.0204 91.554 20.1182 91.5508 20.304C91.5019 22.188 91.4986 24.8349 91.541 28.2444C91.541 28.2607 91.5247 28.5378 91.4921 29.0756C91.4334 29.9883 91.9354 30.4349 92.998 30.4153C93.0183 30.4147 93.0386 30.4181 93.0575 30.4254C93.0765 30.4328 93.0938 30.4438 93.1084 30.458C93.123 30.4721 93.1346 30.489 93.1425 30.5078C93.1504 30.5265 93.1545 30.5466 93.1545 30.5669V30.738C93.1577 30.7902 93.1317 30.8163 93.0762 30.8163L88.4851 30.8261C88.4475 30.8261 88.4114 30.8111 88.3848 30.7845C88.3582 30.7579 88.3433 30.7219 88.3433 30.6843V30.4593C88.3433 30.3974 88.3759 30.3665 88.4411 30.3665L89.3016 30.3616C89.5095 30.3603 89.7085 30.2773 89.8551 30.1307C90.0016 29.9841 90.0839 29.7859 90.0839 29.5792L90.0693 20.3431C90.0693 20.1834 89.991 20.084 89.8346 20.0448C89.5542 19.9797 89.2772 19.9552 89.0034 19.9715C88.8019 19.9852 88.6082 19.9934 88.4223 20.0013C87.2142 20.0525 86.3337 20.0899 85.7617 21.5263C85.7513 21.5525 85.7356 21.5761 85.7154 21.5959C85.6953 21.6156 85.6712 21.631 85.6446 21.641C85.618 21.6511 85.5895 21.6557 85.5609 21.6545C85.5322 21.6532 85.5041 21.6462 85.4781 21.6339C85.4259 21.6144 85.3884 21.5785 85.3656 21.5263C85.3461 21.4905 85.3444 21.4416 85.3607 21.3797C85.6508 20.2323 85.8317 19.4712 85.9035 19.0963C85.9393 18.8975 86.0387 18.8583 86.2017 18.9789L86.6222 19.2968C86.7461 19.3913 86.8846 19.4386 87.0378 19.4386L95.3303 19.4239C95.4421 19.4239 95.5524 19.3917 95.6481 19.331L96.0735 19.0474C96.243 18.9333 96.3163 18.9789 96.2935 19.1843L96.0539 21.6681C96.0507 21.6942 96.0344 21.7089 96.005 21.7121H95.8535C95.7911 21.7123 95.731 21.6892 95.6856 21.6473C95.6401 21.6055 95.6127 21.5482 95.609 21.4872C95.5438 20.5485 94.9945 20.0611 93.9612 20.0253C92.9866 19.9927 92.2776 19.9878 91.8343 20.0106ZM82.8858 26.6863C82.9434 26.6705 83.001 26.671 83.055 26.6879C83.0843 26.6976 83.1788 26.6651 83.3386 26.5901C83.3875 26.564 83.4217 26.533 83.4412 26.4972C83.4673 26.4483 83.4771 26.3961 83.4706 26.3407C83.4608 26.2429 83.407 26.194 83.3092 26.194H79.163C79.0717 26.194 79.0261 26.2397 79.0261 26.3309V26.4825C79.0261 26.5249 79.0456 26.5493 79.0848 26.5559L80.2044 26.7465C80.651 26.8215 80.8971 27.0839 80.9427 27.5337C81.0438 28.5605 81.0161 29.3624 80.8596 29.9393C80.814 30.0958 80.7146 30.1985 80.5614 30.2474C78.0286 31.0493 75.3492 30.086 74.3224 27.5973C73.2859 25.0792 73.5792 21.329 76.2978 20.1703C78.4736 19.2461 81.3388 19.4319 82.0673 22.0527C82.0804 22.0951 82.1146 22.1391 82.17 22.1847C82.2156 22.2173 82.2645 22.2369 82.3167 22.2434C82.3299 22.244 82.3432 22.242 82.3556 22.2374C82.368 22.2328 82.3794 22.2257 82.389 22.2165C82.3986 22.2074 82.4062 22.1964 82.4115 22.1842C82.4167 22.172 82.4194 22.1588 82.4193 22.1456V19.96C82.4193 19.7709 82.3264 19.652 82.1406 19.6031C78.0677 18.5714 73.2712 19.2804 72.2151 23.7884C71.2176 28.0325 74.4202 30.9221 78.4051 31.103C79.3895 31.1487 80.7765 30.9531 82.566 30.5163C82.7323 30.4772 82.7763 30.381 82.698 30.2278C82.3362 29.5205 82.2743 28.5019 82.5122 27.1719C82.5266 27.0942 82.5526 27.019 82.5885 26.9514C82.6244 26.8838 82.6695 26.8252 82.7207 26.7795C82.7719 26.7339 82.8282 26.7021 82.8858 26.6863ZM109.913 22.9041C110.488 24.3875 110.439 26.0431 109.778 27.5065C109.116 28.9699 107.895 30.1214 106.384 30.7076C104.873 31.2937 103.195 31.2666 101.719 30.6321C100.244 29.9977 99.0916 28.8079 98.5162 27.3244C97.9408 25.841 97.9893 24.1854 98.6511 22.722C99.3129 21.2586 100.534 20.1071 102.045 19.5209C103.556 18.9348 105.234 18.9619 106.71 19.5964C108.185 20.2308 109.337 21.4206 109.913 22.9041ZM104.88 30.575C105.449 30.5062 105.995 30.2968 106.487 29.9588C106.979 29.6208 107.407 29.1608 107.748 28.6051C108.089 28.0494 108.335 27.4088 108.472 26.7199C108.61 26.0311 108.636 25.3074 108.549 24.5903C108.374 23.142 107.75 21.8082 106.814 20.8824C105.878 19.9566 104.707 19.5145 103.558 19.6535C102.99 19.7223 102.444 19.9317 101.952 20.2697C101.46 20.6077 101.031 21.0677 100.69 21.6234C100.35 22.1791 100.104 22.8197 99.9662 23.5086C99.8288 24.1974 99.8027 24.9211 99.8895 25.6382C100.065 27.0865 100.689 28.4202 101.625 29.3461C102.561 30.2719 103.732 30.714 104.88 30.575ZM0.40625 30.4241V30.7909L4.63561 30.7664C4.68125 30.7664 4.71385 30.7452 4.7334 30.7028C4.74644 30.6637 4.76437 30.6181 4.78719 30.5659C4.80348 30.5268 4.78719 30.5024 4.73829 30.4926L3.7164 30.2579C3.55405 30.2204 3.40917 30.1294 3.30531 29.9998C3.20144 29.8702 3.14471 29.7096 3.14434 29.544V25.52C3.14434 25.4866 3.15104 25.4536 3.16406 25.4227C3.17708 25.3919 3.19617 25.3639 3.22024 25.3403C3.2443 25.3166 3.27287 25.2979 3.30431 25.2851C3.33575 25.2724 3.36944 25.2658 3.40348 25.2658H9.43215C9.50736 25.2658 9.5795 25.2957 9.63268 25.3488C9.68586 25.402 9.71574 25.4742 9.71574 25.5494C9.72878 27.3911 9.73856 28.5971 9.74508 29.1676C9.75812 29.9922 9.33599 30.3948 8.47871 30.3752C8.3907 30.372 8.3467 30.4144 8.3467 30.5024V30.7077C8.3467 30.7794 8.38255 30.8153 8.45426 30.8153H12.5321C12.6135 30.8153 12.6543 30.7762 12.6543 30.6979V30.5122C12.6543 30.4797 12.6409 30.4486 12.6171 30.4257C12.5932 30.4028 12.5609 30.3899 12.5272 30.3899C12.0447 30.3997 11.6731 30.2921 11.4124 30.0672C11.2755 29.9499 11.207 29.8016 11.207 29.6223C11.1646 24.5633 11.1614 21.5971 11.1972 20.7235C11.2266 20.0683 11.6471 19.7635 12.4587 19.8092C12.5598 19.8157 12.6103 19.7684 12.6103 19.6674V19.5158C12.6103 19.4376 12.5712 19.3985 12.4929 19.3985H8.46893C8.31573 19.3985 8.26195 19.4718 8.30758 19.6185L8.3467 19.7603C8.35322 19.7733 8.37114 19.7815 8.40048 19.7847C9.34577 19.863 9.80049 20.29 9.76463 21.0658C9.7353 21.6786 9.72226 21.9996 9.72552 22.029C9.76463 22.8341 9.75486 23.5871 9.69618 24.2879C9.68314 24.4541 9.59188 24.5373 9.42237 24.5373H3.33013C3.28345 24.5373 3.23868 24.5182 3.20567 24.4843C3.17266 24.4503 3.15411 24.4043 3.15411 24.3563V20.4692C3.15411 20.2574 3.25516 20.1188 3.45726 20.0536L4.47426 19.7358C4.51012 19.7228 4.52805 19.6967 4.52805 19.6576V19.4914C4.52805 19.4262 4.49545 19.3936 4.43026 19.3936L0.40625 19.3838V19.8189C1.26679 19.8189 1.69869 20.2313 1.70195 21.056C1.71173 23.6246 1.70195 26.1915 1.67261 28.7568C1.66284 29.8358 1.24071 30.3915 0.40625 30.4241ZM27.3113 19.7456C26.2796 19.8532 25.908 20.0732 25.8738 21.1929C25.8477 21.9752 25.8119 23.7729 25.7662 26.5859C25.7467 27.6714 25.4386 28.646 24.8421 29.5098C23.5024 31.4411 20.07 31.4802 18.3441 30.3263C17.3662 29.6744 16.8446 28.5841 16.7794 27.0553C16.7403 26.1622 16.7191 24.3645 16.7159 21.6622C16.7159 21.6297 16.7257 21.4487 16.7452 21.1195C16.8006 20.2329 16.3296 19.7863 15.3322 19.7798C15.267 19.7798 15.2344 19.7472 15.2344 19.682V19.4913C15.2344 19.4294 15.2653 19.3984 15.3273 19.3984H19.586C19.6316 19.3984 19.6544 19.4213 19.6544 19.4669V19.6282C19.6544 19.7293 19.6039 19.7782 19.5029 19.7749C18.6749 19.7586 18.243 20.096 18.2072 20.787C18.0865 23.2676 18.1094 25.3864 18.2756 27.1433C18.4451 28.9426 19.3252 29.971 20.9159 30.2285C22.6631 30.5089 23.8675 29.958 24.5292 28.5759C24.8323 27.937 25.0084 26.9412 25.0573 25.5885C25.1192 23.9978 25.067 22.4006 24.9008 20.7968C24.8128 19.9461 24.2847 19.77 23.5513 19.8043C23.4633 19.8075 23.4193 19.7651 23.4193 19.6771V19.4962C23.4193 19.431 23.4519 19.3984 23.5171 19.3984H27.2673C27.3455 19.3984 27.3846 19.4376 27.3846 19.5158V19.6625C27.3846 19.7146 27.3602 19.7423 27.3113 19.7456ZM35.6673 24.7328H33.1688C32.7874 24.7328 32.5967 24.5405 32.5967 24.1558V20.5523C32.5967 20.1384 32.8021 19.9444 33.2128 19.9705C34.0701 20.0292 34.7041 20.0487 35.1148 20.0292C36.1774 19.9803 36.787 20.4676 36.9435 21.4911C36.9663 21.6476 37.0559 21.7193 37.2124 21.7062L37.3346 21.7013C37.39 21.6948 37.4177 21.6639 37.4177 21.6084V19.6918C37.4177 19.506 37.3265 19.4131 37.1439 19.4131H29.8929C29.8603 19.4131 29.8391 19.4278 29.8293 19.4571L29.7902 19.5891C29.7828 19.612 29.7806 19.6362 29.7837 19.6601C29.7869 19.6839 29.7954 19.7067 29.8085 19.7269C29.8216 19.7471 29.8391 19.764 29.8596 19.7766C29.8801 19.7891 29.9032 19.7969 29.9271 19.7994C30.8202 19.8841 31.2391 20.3242 31.1837 21.1195C31.1576 21.5009 31.1462 21.7111 31.1495 21.7502C31.1755 26.1018 31.1755 28.6541 31.1495 29.4071C31.1267 30.1144 30.6866 30.442 29.8293 30.3899C29.8086 30.3885 29.7878 30.3915 29.7683 30.3985C29.7488 30.4055 29.7309 30.4164 29.7158 30.4307C29.7006 30.4449 29.6886 30.462 29.6804 30.4811C29.6721 30.5001 29.6679 30.5207 29.668 30.5414V30.7126C29.668 30.781 29.7022 30.8153 29.7706 30.8153H34.1565C34.2282 30.8153 34.264 30.7794 34.264 30.7077V30.4974C34.2641 30.4723 34.2544 30.4482 34.2371 30.43C34.2199 30.4118 34.1962 30.4009 34.1711 30.3997C33.6626 30.3931 33.2324 30.3116 32.8803 30.1552C32.7043 30.077 32.6163 29.9433 32.6163 29.7542V25.6716C32.6163 25.489 32.7076 25.3978 32.8901 25.3978H35.6086C35.7944 25.3978 35.9199 25.4841 35.9851 25.6569L36.3909 26.7081C36.4203 26.7864 36.461 26.8336 36.5132 26.8499C36.5751 26.8695 36.6354 26.8646 36.6941 26.8353C36.756 26.8027 36.787 26.7521 36.787 26.6837V23.4811C36.787 23.4029 36.7495 23.3523 36.6745 23.3295L36.5376 23.2855C36.4692 23.266 36.4252 23.2888 36.4056 23.354L36.0682 24.4394C36.0063 24.635 35.8727 24.7328 35.6673 24.7328ZM42.9493 20.5523V24.1558C42.9493 24.5405 43.14 24.7328 43.5214 24.7328H46.0199C46.2252 24.7328 46.3589 24.635 46.4208 24.4394L46.7582 23.354C46.7777 23.2888 46.8217 23.266 46.8902 23.2855L47.0271 23.3295C47.1021 23.3523 47.1395 23.4029 47.1395 23.4811V26.6886C47.1395 26.757 47.1086 26.8075 47.0466 26.8401C46.988 26.8695 46.9277 26.8744 46.8657 26.8548C46.8136 26.8385 46.7728 26.7912 46.7435 26.713L46.3377 25.6618C46.2725 25.489 46.147 25.4026 45.9612 25.4026L43.2427 25.3978C43.0601 25.3978 42.9688 25.489 42.9688 25.6716V29.7591C42.9688 29.9482 43.0569 30.0818 43.2329 30.1601C43.5849 30.3165 44.0152 30.398 44.5237 30.4045C44.5488 30.4058 44.5724 30.4167 44.5897 30.4349C44.607 30.4531 44.6166 30.4772 44.6166 30.5023V30.7126C44.6166 30.7843 44.5807 30.8201 44.509 30.8201H40.1183C40.0499 30.8201 40.0156 30.7859 40.0156 30.7175V30.5463C40.0156 30.5256 40.0198 30.505 40.028 30.486C40.0362 30.4669 40.0483 30.4498 40.0634 30.4355C40.0785 30.4213 40.0964 30.4104 40.116 30.4034C40.1355 30.3964 40.1563 30.3934 40.177 30.3948C41.0343 30.4469 41.4759 30.1193 41.502 29.412C41.5281 28.659 41.5281 26.1051 41.502 21.7502C41.4988 21.7111 41.5102 21.5009 41.5362 21.1195C41.5917 20.3242 41.1728 19.8841 40.2797 19.7994C40.2557 19.7969 40.2327 19.7891 40.2121 19.7766C40.1916 19.764 40.1741 19.7471 40.161 19.7269C40.1479 19.7067 40.1395 19.6839 40.1363 19.6601C40.1331 19.6362 40.1353 19.612 40.1427 19.5891L40.1819 19.4571C40.1916 19.4278 40.2128 19.4131 40.2454 19.4131H47.5014C47.6839 19.4131 47.7752 19.506 47.7752 19.6918V21.6084C47.7752 21.6639 47.7475 21.6948 47.692 21.7013L47.5698 21.7062C47.4101 21.7193 47.3188 21.6476 47.296 21.4911C47.1428 20.4676 46.5332 19.9803 45.4674 20.0292C45.0566 20.0487 44.4226 20.0292 43.5654 19.9705C43.1546 19.9444 42.9493 20.1384 42.9493 20.5523ZM54.8498 19.4231C54.1066 19.384 53.3732 19.3807 52.6495 19.4133C51.9259 19.3807 51.1925 19.384 50.4493 19.4231C50.4232 19.4231 50.4102 19.4362 50.4102 19.4622V19.6431C50.4101 19.6692 50.4154 19.6951 50.4255 19.7191C50.4356 19.7432 50.4505 19.765 50.4692 19.7832C50.4878 19.8014 50.51 19.8157 50.5343 19.8253C50.5586 19.8348 50.5845 19.8394 50.6106 19.8387C51.4646 19.8126 51.8982 20.1419 51.9112 20.8264C51.9275 21.6315 51.9357 23.0576 51.9357 25.1046C51.9357 27.1517 51.9275 28.5778 51.9112 29.3829C51.8982 30.0707 51.4646 30.4015 50.6106 30.3755C50.5845 30.3748 50.5586 30.3794 50.5343 30.3889C50.51 30.3985 50.4878 30.4128 50.4692 30.431C50.4505 30.4492 50.4356 30.471 50.4255 30.495C50.4154 30.5191 50.4101 30.5449 50.4102 30.571V30.7519C50.4102 30.778 50.4232 30.7911 50.4493 30.7911C51.1925 30.8269 51.9259 30.8285 52.6495 30.796C53.3764 30.8285 54.1115 30.8269 54.8547 30.7911C54.8807 30.7911 54.8938 30.778 54.8938 30.7519V30.571C54.8938 30.5449 54.8886 30.5191 54.8784 30.495C54.8683 30.471 54.8535 30.4492 54.8348 30.431C54.8161 30.4128 54.7939 30.3985 54.7696 30.3889C54.7454 30.3794 54.7194 30.3748 54.6933 30.3755C53.8393 30.4015 53.4058 30.0707 53.3927 29.3829C53.3732 28.5778 53.3634 27.1517 53.3634 25.1046C53.3634 23.0576 53.3715 21.6315 53.3878 20.8264C53.4009 20.1386 53.8344 19.8078 54.6884 19.8338C54.7145 19.8345 54.7405 19.8299 54.7648 19.8204C54.7891 19.8108 54.8112 19.7965 54.8299 19.7783C54.8486 19.7601 54.8634 19.7383 54.8735 19.7142C54.8837 19.6902 54.8889 19.6644 54.8889 19.6383V19.4573C54.8889 19.4313 54.8758 19.4199 54.8498 19.4231ZM60.1874 21.8872C59.9886 21.6557 59.8892 21.6932 59.8892 21.9996V29.5587C59.8892 29.7727 59.9742 29.9779 60.1254 30.1292C60.2767 30.2804 60.4819 30.3654 60.6959 30.3654H61.444C61.5613 30.3654 61.62 30.4241 61.62 30.5415V30.7419C61.62 30.7941 61.5939 30.8202 61.5418 30.8202H57.7916C57.7068 30.8202 57.6645 30.7778 57.6645 30.693V30.517C57.6645 30.4323 57.7068 30.3915 57.7916 30.3948C58.6358 30.4372 59.0726 29.9841 59.102 29.0355C59.1378 27.8686 59.1427 25.6276 59.1166 22.3125C59.1158 22.1936 59.1163 22.0776 59.1169 21.9647C59.1228 20.7971 59.1269 19.971 57.5129 19.8238C57.474 19.8202 57.4379 19.8021 57.4116 19.7731C57.3854 19.7442 57.3709 19.7064 57.3711 19.6674V19.4864C57.3711 19.431 57.3988 19.4033 57.4542 19.4033H59.6251C59.8109 19.4033 59.9641 19.4734 60.0847 19.6136L67.4629 28.0674C67.4801 28.0865 67.5028 28.1002 67.5278 28.1067C67.5529 28.1132 67.5791 28.1121 67.603 28.1036C67.627 28.095 67.6474 28.0795 67.6617 28.0591C67.676 28.0387 67.6834 28.0143 67.6829 27.9892V20.7284C67.683 20.5705 67.63 20.4172 67.5325 20.293C67.4349 20.1689 67.2985 20.0811 67.1451 20.0438L66.133 19.7945C66.0384 19.7717 65.9814 19.7244 65.9618 19.6527C65.9488 19.6071 65.9472 19.5647 65.9569 19.5256C65.97 19.4408 66.0189 19.3984 66.1036 19.3984H69.9418C69.9744 19.3984 69.9907 19.4147 69.9907 19.4473V19.6282C69.9909 19.6686 69.9759 19.7076 69.9488 19.7374C69.9216 19.7673 69.8843 19.7859 69.8441 19.7896C68.9379 19.8613 68.4815 20.4448 68.475 21.54C68.4457 25.4939 68.4424 28.5612 68.4652 30.7419C68.4685 31.1689 68.33 31.2211 68.0496 30.8984L60.1874 21.8872ZM124.593 19.8097V19.355L120.931 19.3794C120.866 19.3794 120.833 19.412 120.833 19.4772V19.6679C120.833 19.706 120.848 19.7426 120.875 19.7699C120.901 19.7973 120.937 19.8133 120.975 19.8146C122.054 19.8733 122.579 20.3997 122.55 21.3939C122.514 22.4871 122.53 23.6005 122.547 24.7361V24.7366V24.7369V24.7371V24.7374V24.7376C122.562 25.7702 122.578 26.8211 122.555 27.8919C122.553 27.9272 122.541 27.9614 122.521 27.9901C122.5 28.0188 122.471 28.0407 122.438 28.0528C122.406 28.065 122.37 28.0668 122.337 28.0582C122.304 28.0496 122.274 28.0308 122.251 28.0044L114.917 19.5946C114.81 19.4707 114.674 19.4088 114.511 19.4088H112.321C112.23 19.4088 112.189 19.4528 112.199 19.5408L112.208 19.6826C112.218 19.7706 112.257 19.8178 112.326 19.8244C113.499 19.9075 113.974 20.3524 113.978 21.6041C113.985 24.6845 113.983 26.8684 113.974 28.156C113.967 28.6938 113.91 29.2838 113.802 29.9259C113.77 30.1052 113.659 30.2144 113.47 30.2535L112.605 30.4198C112.577 30.4255 112.552 30.4403 112.534 30.4617C112.516 30.4831 112.506 30.5098 112.507 30.5371V30.6936C112.507 30.7751 112.547 30.8158 112.629 30.8158H116.374C116.443 30.8158 116.477 30.7832 116.477 30.718V30.542C116.477 30.5178 116.472 30.4938 116.462 30.4717C116.453 30.4495 116.438 30.4297 116.42 30.4135C116.402 30.3974 116.381 30.3852 116.358 30.3778C116.335 30.3705 116.31 30.3681 116.286 30.3709C115.37 30.4556 114.89 30.1541 114.844 29.4663C114.697 27.1911 114.668 24.6812 114.756 21.9366C114.762 21.6954 114.846 21.6661 115.005 21.8486L122.863 30.8598C123.182 31.2216 123.337 31.1613 123.327 30.6789C123.272 27.5497 123.277 24.4253 123.342 21.3059C123.361 20.3769 123.779 19.8782 124.593 19.8097ZM80.6103 38.389C80.5582 40.2731 80.55 42.9199 80.5859 46.3295C80.5859 46.3458 80.5696 46.6229 80.537 47.1607C80.4751 48.0734 80.977 48.5216 82.0429 48.5053C82.0632 48.5046 82.0835 48.5081 82.1024 48.5154C82.1214 48.5227 82.1387 48.5338 82.1533 48.5479C82.1679 48.5621 82.1795 48.579 82.1874 48.5977C82.1953 48.6164 82.1994 48.6365 82.1994 48.6569V48.828C82.1994 48.8801 82.1717 48.9062 82.1163 48.9062H77.5251C77.4875 48.9062 77.4514 48.8913 77.4248 48.8647C77.3982 48.8381 77.3833 48.802 77.3833 48.7644V48.5395C77.3833 48.4776 77.4159 48.4466 77.4811 48.4466H78.3416C78.5504 48.4466 78.7506 48.3642 78.8983 48.2175C79.0459 48.0708 79.1288 47.8718 79.1288 47.6643V38.4233C79.1288 38.2636 79.0506 38.1641 78.8941 38.125C78.6138 38.0598 78.3367 38.0354 78.0629 38.0517C77.8636 38.0646 77.6719 38.0722 77.4878 38.0795C76.2766 38.1277 75.3936 38.1628 74.8163 39.6016C74.806 39.6278 74.7903 39.6514 74.7701 39.6711C74.75 39.6909 74.7259 39.7063 74.6993 39.7163C74.6727 39.7264 74.6442 39.731 74.6156 39.7298C74.5869 39.7285 74.5587 39.7215 74.5328 39.7092C74.4806 39.6864 74.4431 39.6489 74.4203 39.5967C74.4007 39.5609 74.3991 39.512 74.4154 39.4501C74.7088 38.3027 74.8913 37.5415 74.963 37.1667C74.9989 36.9679 75.0983 36.9304 75.2613 37.0542L75.6818 37.372C75.8056 37.4666 75.9442 37.5138 76.0974 37.5138H84.3948C84.5066 37.5138 84.6168 37.4816 84.7126 37.4209L85.1379 37.1373C85.3074 37.0233 85.3808 37.0689 85.358 37.2743L85.1135 39.763C85.1102 39.7891 85.0939 39.8021 85.0646 39.8021H84.913C84.8507 39.8023 84.7906 39.7791 84.7451 39.7373C84.6997 39.6955 84.6723 39.6382 84.6686 39.5772C84.6066 38.6384 84.059 38.1511 83.0257 38.1152C82.0511 38.0794 81.3405 38.0729 80.8939 38.0957C80.7081 38.1055 80.6136 38.2032 80.6103 38.389ZM55.8363 49.1769H57.4743C60.5188 48.5772 62.2431 46.8268 62.6473 43.9257C63.014 41.2854 61.5716 38.5277 58.9411 37.5988C55.9145 36.5377 52.355 37.7601 51.0838 40.816C49.4996 44.6249 51.602 48.5266 55.8363 49.1769ZM58.899 48.0417C58.4057 48.3796 57.8585 48.589 57.2886 48.658C56.7187 48.7269 56.1374 48.6541 55.5777 48.4436C55.018 48.2332 54.491 47.8892 54.0267 47.4313C53.5625 46.9734 53.17 46.4107 52.8718 45.7751C52.5737 45.1395 52.3756 44.4437 52.2889 43.7272C52.2022 43.0107 52.2286 42.2876 52.3665 41.5993C52.5045 40.911 52.7514 40.2708 53.093 39.7154C53.4347 39.16 53.8644 38.7003 54.3578 38.3624C54.8511 38.0245 55.3983 37.8151 55.9682 37.7461C56.538 37.6772 57.1194 37.75 57.6791 37.9605C58.2388 38.1709 58.7658 38.5149 59.23 38.9728C59.6943 39.4307 60.0867 39.9934 60.3849 40.629C60.6831 41.2646 60.8812 41.9604 60.9679 42.6769C61.0546 43.3934 61.0282 44.1165 60.8902 44.8048C60.7523 45.4931 60.5054 46.1333 60.1637 46.6887C59.8221 47.2441 59.3923 47.7038 58.899 48.0417ZM69.0975 49.1769H67.5329L65.8851 48.6195C65.7222 48.5641 65.613 48.4549 65.5575 48.2919C65.3098 47.5683 65.2071 46.8365 65.2495 46.0965C65.2528 46.0248 65.2903 45.989 65.362 45.989H65.5087C65.5445 45.989 65.5673 46.0069 65.5771 46.0428C65.965 47.2586 66.5794 48.0393 67.4204 48.3848C68.8237 48.9618 70.7306 48.4435 70.6768 46.6246C70.6507 45.6402 70.3508 44.9606 69.7771 44.5857C69.4995 44.4031 69.2257 44.2305 68.9597 44.0628C67.4593 43.1171 66.2035 42.3256 65.8754 40.7475C65.4647 38.7673 67.0537 37.3444 68.9704 37.2515C69.769 37.2157 70.5692 37.3298 71.3711 37.5938C71.5341 37.646 71.6302 37.7552 71.6596 37.9214C71.7802 38.6092 71.8389 39.1421 71.8356 39.5202C71.8356 39.6278 71.7834 39.6963 71.6791 39.7256C71.5161 39.7745 71.4086 39.7191 71.3564 39.5594C70.8968 38.174 69.9483 37.6085 68.5108 37.8627C67.9306 37.9638 67.5215 38.2262 67.2835 38.6499C66.2297 40.5117 68.2398 41.707 69.6593 42.5511C69.8204 42.647 69.9739 42.7383 70.1145 42.8255C71.0337 43.3927 71.8356 44.3852 71.9676 45.5049C72.1893 47.4151 71.2326 48.6391 69.0975 49.1769ZM42.9122 38.1378C42.9498 38.0948 43.0011 38.0668 43.057 38.0588C44.9785 37.8094 46.3671 38.5917 46.4991 40.6355C46.6002 42.2099 45.8032 43.2139 44.1082 43.6474C44.0658 43.6604 44.03 43.6832 44.0006 43.7158C43.9648 43.7647 43.9469 43.8055 43.9469 43.8381C43.9501 43.9391 44.0006 43.988 44.0984 43.9848C45.122 43.9685 45.9629 43.7582 46.6214 43.354C47.4069 42.8716 47.8829 42.2343 48.0491 41.4422C48.4891 39.3202 46.9783 37.7556 44.9101 37.5551C43.4269 37.4117 41.7971 37.4248 40.0206 37.5943C39.9587 37.6008 39.9277 37.6334 39.9277 37.6921V37.8583C39.9277 37.9854 39.9913 38.0474 40.1184 38.0441C40.5161 38.0376 40.847 38.1223 41.111 38.2983C41.274 38.4059 41.3603 38.6846 41.3701 39.1344C41.4255 41.954 41.4255 44.6937 41.3701 47.3536C41.3555 48.2288 40.9007 48.5075 40.094 48.4684C40.006 48.4651 39.962 48.5075 39.962 48.5955V48.7422C39.962 48.7876 39.9795 48.8311 40.0107 48.8632C40.0418 48.8953 40.0841 48.9133 40.1282 48.9133H44.3233C44.4179 48.9133 44.4651 48.866 44.4651 48.7715V48.5955C44.4651 48.501 44.4179 48.4586 44.3233 48.4684C43.3618 48.5564 42.8712 48.1897 42.8516 47.3683C42.806 45.1615 42.806 42.1365 42.8516 38.2935C42.8532 38.2358 42.8746 38.1807 42.9122 38.1378Z" fill="#9C907D"/>
</svg>
