<svg width="54" height="48" viewBox="0 0 54 48" fill="none" xmlns="http://www.w3.org/2000/svg">
<path fill-rule="evenodd" clip-rule="evenodd" d="M0.397461 28.1792V30.1496L6.99747 30.1456C7.05877 30.1456 7.11769 30.1218 7.16178 30.0792C7.20586 30.0366 7.23167 29.9785 7.23375 29.9173C7.41797 24.9753 9.03594 20.7742 12.0876 17.314C17.8546 10.7821 27.1259 8.75561 35.0515 12.5002C39.0296 14.3798 42.0747 17.354 44.1866 21.423C45.4574 23.8793 46.1543 26.7241 46.2771 29.9573C46.2792 30.0016 46.2982 30.0434 46.3303 30.074C46.3624 30.1045 46.405 30.1216 46.4493 30.1215H52.9372C53.0707 30.1215 53.1374 30.0548 53.1374 29.9213C53.0413 18.5875 45.7244 8.55938 34.9634 5.05513C18.5675 -0.287353 1.84722 11.0985 0.397461 28.1792ZM37.2913 16.0613C34.3117 13.7745 30.5551 12.5851 26.7585 12.5851C22.9579 12.5811 19.2054 13.7705 16.2218 16.0533C11.6963 19.5188 9.33874 24.1404 9.14917 29.9181C9.1481 29.9456 9.15248 29.973 9.16206 29.9988C9.17164 30.0245 9.18621 30.048 9.20492 30.0678C9.22362 30.0876 9.24606 30.1034 9.27089 30.1141C9.29572 30.1249 9.32243 30.1304 9.34942 30.1304L15.7812 30.1344C15.8408 30.1344 15.8981 30.1116 15.9414 30.0706C15.9846 30.0296 16.0104 29.9736 16.0135 29.9141C16.2858 25.7223 18.2362 22.6186 21.8646 20.6028C23.2343 19.8392 24.8642 19.4587 26.7545 19.4614C28.6475 19.4614 30.2788 19.8419 31.6485 20.6028C35.2742 22.6212 37.2219 25.7277 37.4915 29.9221C37.4946 29.9816 37.5205 30.0376 37.5637 30.0786C37.6069 30.1196 37.6642 30.1424 37.7238 30.1424H44.1556C44.1826 30.1424 44.2093 30.1369 44.2342 30.1261C44.259 30.1154 44.2814 30.0996 44.3001 30.0798C44.3188 30.06 44.3334 30.0365 44.343 30.0108C44.3526 29.985 44.357 29.9576 44.3559 29.9301C44.1716 24.1524 41.8168 19.5295 37.2913 16.0613ZM18.0485 30.1338C18.0262 30.1338 18.0048 30.1249 17.989 30.1092C17.9733 30.0934 17.9644 30.072 17.9644 30.0497V29.9936C17.9644 27.6983 18.8906 25.497 20.5391 23.874C22.1877 22.2509 24.4236 21.3391 26.7551 21.3391H26.7631C29.0945 21.3391 31.3304 22.2509 32.979 23.874C34.6276 25.497 35.5537 27.6983 35.5537 29.9936V30.0497C35.5537 30.072 35.5449 30.0934 35.5291 30.1092C35.5133 30.1249 35.4919 30.1338 35.4696 30.1338H18.0485ZM19.3404 42.6444C20.3978 41.6092 20.9875 40.2095 20.9799 38.7533C20.9723 37.2971 20.3679 35.9037 19.2998 34.8796C18.2317 33.8554 16.7873 33.2845 15.2843 33.2924C13.7814 33.3003 12.3431 33.8863 11.2857 34.9215C10.2284 35.9568 9.63867 37.3565 9.6463 38.8126C9.65392 40.2688 10.2583 41.6623 11.3264 42.6864C12.3945 43.7105 13.8389 44.2814 15.3418 44.2735C16.8448 44.2657 18.2831 43.6797 19.3404 42.6444ZM16.3802 41.4966C16.0472 41.6465 15.6898 41.7246 15.3285 41.7265C14.5988 41.7303 13.8974 41.4234 13.3785 40.8734C12.8597 40.3233 12.5659 39.5751 12.5618 38.7934C12.5598 38.4063 12.6289 38.0226 12.7653 37.6643C12.9017 37.306 13.1027 36.98 13.3567 36.7049C13.6108 36.4299 13.9129 36.2112 14.246 36.0613C14.579 35.9114 14.9364 35.8333 15.2977 35.8314C16.0274 35.8276 16.7288 36.1345 17.2476 36.6846C17.7665 37.2346 18.0603 37.9828 18.0644 38.7645C18.0664 39.1516 17.9973 39.5353 17.8609 39.8936C17.7245 40.252 17.5235 40.578 17.2695 40.853C17.0154 41.128 16.7132 41.3467 16.3802 41.4966ZM0.397461 35.967V33.508L8.91579 33.476C9.01725 33.476 9.06798 33.5267 9.06798 33.6282V35.8629C9.06798 35.9563 9.02125 36.003 8.92781 36.003H6.39674C6.33301 36.003 6.27189 36.0283 6.22683 36.0734C6.18176 36.1185 6.15645 36.1796 6.15645 36.2433V43.8245C6.15645 43.974 6.08035 44.0488 5.92817 44.0488H3.5653C3.41045 44.0488 3.33302 43.9727 3.33302 43.8205V36.3394C3.33304 36.2435 3.29562 36.1514 3.22889 36.0831C3.16215 36.0149 3.07149 35.9761 2.97659 35.975L0.397461 35.967ZM22.5062 33.6191C22.497 33.6424 22.4925 33.6673 22.4931 33.6923L22.5491 43.8967C22.5502 43.9459 22.5705 43.9928 22.6057 44.0272C22.6409 44.0616 22.6881 44.0809 22.7374 44.0809L27.2549 44.0569C28.6959 44.0491 30.0751 43.5 31.089 42.5304C32.1028 41.5609 32.6685 40.2502 32.6614 38.8866V38.5903C32.6579 37.9148 32.5139 37.2468 32.2375 36.6242C31.961 36.0016 31.5577 35.4367 31.0504 34.9618C30.5431 34.4869 29.9419 34.1112 29.281 33.8563C28.6201 33.6014 27.9126 33.4722 27.1988 33.4761L22.6813 33.5001C22.6562 33.5001 22.6314 33.5051 22.6083 33.5148C22.5852 33.5245 22.5643 33.5387 22.5468 33.5566C22.5292 33.5745 22.5155 33.5958 22.5062 33.6191ZM25.3766 41.3055V36.2194C25.3766 36.1556 25.4019 36.0945 25.447 36.0495C25.492 36.0044 25.5531 35.9791 25.6169 35.9791H26.9865C27.7194 35.9791 28.4223 36.2576 28.9405 36.7533C29.4587 37.249 29.7499 37.9213 29.7499 38.6223V38.9026C29.7499 39.6037 29.4587 40.276 28.9405 40.7717C28.4223 41.2674 27.7194 41.5458 26.9865 41.5458H25.6169C25.5531 41.5458 25.492 41.5205 25.447 41.4755C25.4019 41.4304 25.3766 41.3693 25.3766 41.3055ZM38.4326 33.476C38.9719 33.476 39.4965 33.4786 40.0065 33.484C40.0562 33.4848 40.1045 33.5004 40.1452 33.529C40.1859 33.5576 40.2171 33.5977 40.2348 33.6442L44.0314 43.6723C44.1275 43.926 44.0394 44.0528 43.767 44.0528H41.272C41.021 44.0528 40.8622 43.934 40.7954 43.6964L40.5231 42.7592C40.4937 42.6551 40.3909 42.591 40.2147 42.567C40.0892 42.5483 39.4979 42.539 38.4406 42.539C37.386 42.5416 36.7959 42.5523 36.6704 42.571C36.4942 42.595 36.3914 42.6591 36.3621 42.7632L36.0937 43.7004C36.027 43.938 35.8681 44.0581 35.6172 44.0608L33.1221 44.0648C32.8498 44.0648 32.7617 43.938 32.8578 43.6843L36.6304 33.6482C36.648 33.6017 36.6792 33.5616 36.7199 33.533C36.7606 33.5044 36.8089 33.4888 36.8587 33.488C37.3686 33.48 37.8933 33.476 38.4326 33.476ZM37.3152 39.8677C37.3083 39.8893 37.3066 39.9121 37.3101 39.9344C37.3137 39.9568 37.3224 39.978 37.3357 39.9963C37.3489 40.0146 37.3663 40.0295 37.3864 40.0399C37.4065 40.0503 37.4288 40.0558 37.4514 40.0559L39.4178 40.06C39.4404 40.0598 39.4626 40.0543 39.4827 40.0439C39.5028 40.0336 39.5202 40.0186 39.5335 40.0003C39.5467 39.982 39.5555 39.9608 39.559 39.9384C39.5626 39.9161 39.5608 39.8933 39.5539 39.8717L38.5767 36.8841C38.5669 36.8558 38.5485 36.8313 38.5241 36.814C38.4997 36.7966 38.4705 36.7873 38.4406 36.7873C38.4106 36.7873 38.3815 36.7966 38.3571 36.814C38.3327 36.8313 38.3143 36.8558 38.3044 36.8841L37.3152 39.8677ZM48.3883 37.0438C48.3696 37.0518 48.3416 37.0558 48.3042 37.0558C48.2642 37.0558 48.2348 37.0518 48.2161 37.0438C48.1868 37.0304 48.1667 37.0144 48.1561 36.9957C47.4966 35.8797 46.8518 34.7664 46.2217 33.6557C46.1899 33.5998 46.1439 33.5533 46.0883 33.521C46.0328 33.4886 45.9696 33.4715 45.9053 33.4715L43.186 33.4875C43.1501 33.4875 43.1149 33.4973 43.084 33.5156C43.0531 33.534 43.0278 33.5603 43.0106 33.5918C42.9934 33.6234 42.985 33.6589 42.9862 33.6948C42.9875 33.7307 42.9984 33.7656 43.0178 33.7959L46.6582 39.4267C46.7982 39.6433 46.8733 39.8949 46.8745 40.1516L46.8905 43.836C46.8932 43.9589 46.9559 44.0256 47.0787 44.0363C47.2683 44.0496 47.6821 44.055 48.3203 44.0523C48.961 44.0496 49.3762 44.0416 49.5658 44.0283C49.6886 44.0176 49.75 43.9508 49.75 43.828V40.1436C49.75 39.8873 49.8237 39.6357 49.9622 39.4187L53.5706 33.7678C53.59 33.7376 53.6009 33.7027 53.6022 33.6668C53.6035 33.6309 53.5951 33.5953 53.5779 33.5638C53.5607 33.5323 53.5353 33.5059 53.5044 33.4876C53.4736 33.4692 53.4383 33.4595 53.4024 33.4594H50.6831C50.6188 33.4595 50.5557 33.4766 50.5001 33.5089C50.4445 33.5413 50.3985 33.5878 50.3667 33.6437C49.742 34.757 49.1025 35.8744 48.4484 36.9957C48.4377 37.0144 48.4177 37.0304 48.3883 37.0438Z" fill="#9C907D"/>
</svg>
