<svg width="124" height="48" viewBox="0 0 124 48" fill="none" xmlns="http://www.w3.org/2000/svg">
<path fill-rule="evenodd" clip-rule="evenodd" d="M16.4521 29.559C16.7613 26.7501 15.6493 24.7776 13.1161 23.6414C12.8777 23.5334 12.874 23.4179 13.105 23.2949C15.4631 22.0432 16.4279 20.1433 15.9995 17.5952C15.6922 15.7792 14.5578 14.4269 12.9708 13.6502C12.304 13.3223 11.1008 13.1435 9.36104 13.1137C6.92471 13.069 4.05251 13.0653 0.744456 13.1025C0.655025 13.104 0.569753 13.1406 0.507033 13.2043C0.444312 13.2681 0.409168 13.354 0.40918 13.4434V34.359C0.409208 34.3966 0.424359 34.4328 0.45145 34.4598C0.478541 34.4869 0.515465 34.5029 0.554466 34.5043C5.53145 34.5341 9.0891 34.5099 11.2274 34.4317C13.8649 34.3423 16.1448 32.3809 16.4521 29.559ZM4.96334 21.3783L4.97452 17.3214C4.97452 17.2681 4.99571 17.2169 5.03344 17.1792C5.07116 17.1415 5.12233 17.1203 5.17568 17.1203L9.22693 17.1259C9.82416 17.1274 10.3963 17.3525 10.8176 17.7518C11.2389 18.151 11.4747 18.6917 11.4733 19.2549V19.4672C11.4726 19.7461 11.4136 20.022 11.2998 20.2794C11.1859 20.5367 11.0194 20.7704 10.8098 20.9671C10.6002 21.1637 10.3515 21.3195 10.078 21.4256C9.80448 21.5316 9.51149 21.5858 9.21576 21.585L5.16451 21.5794C5.11116 21.5794 5.05999 21.5582 5.02226 21.5205C4.98454 21.4828 4.96334 21.4316 4.96334 21.3783ZM4.99687 30.2519L5.00804 25.871C5.00804 25.8382 5.01458 25.8058 5.02728 25.7756C5.03998 25.7454 5.0586 25.718 5.08202 25.6951C5.10545 25.6722 5.13322 25.6542 5.1637 25.6422C5.19417 25.6302 5.22675 25.6244 5.2595 25.6251L9.35545 25.6419C10.0286 25.645 10.673 25.8861 11.1476 26.3125C11.6221 26.7388 11.8879 27.3155 11.8868 27.9162V28.2514C11.8862 28.5499 11.8197 28.8453 11.691 29.1206C11.5622 29.396 11.3739 29.646 11.1367 29.8562C10.8994 30.0664 10.618 30.2328 10.3085 30.3458C9.99905 30.4587 9.66757 30.5161 9.3331 30.5145L5.23715 30.4978C5.17291 30.4963 5.1118 30.4698 5.0669 30.4238C5.02199 30.3779 4.99685 30.3162 4.99687 30.2519ZM74.5528 25.3316V21.8671C74.5528 21.7945 74.524 21.7248 74.4726 21.6735C74.4213 21.6221 74.3516 21.5933 74.279 21.5933H67.0427C66.97 21.5933 66.9004 21.5644 66.849 21.5131C66.7977 21.4617 66.7688 21.3921 66.7688 21.3195V17.38C66.7688 17.3073 66.7977 17.2377 66.849 17.1864C66.9004 17.135 66.97 17.1062 67.0427 17.1062H76.7601C76.796 17.1062 76.8316 17.0991 76.8648 17.0853C76.8981 17.0716 76.9282 17.0514 76.9537 17.026C76.9791 17.0005 76.9993 16.9704 77.013 16.9371C77.0268 16.9039 77.0339 16.8683 77.0339 16.8324V13.4237C77.0339 13.3878 77.0268 13.3522 77.013 13.3189C76.9993 13.2857 76.9791 13.2555 76.9537 13.2301C76.9282 13.2047 76.8981 13.1845 76.8648 13.1707C76.8316 13.157 76.796 13.1499 76.7601 13.1499H62.5053C62.4326 13.1499 62.363 13.1788 62.3116 13.2301C62.2603 13.2815 62.2314 13.3511 62.2314 13.4237V34.1885C62.2314 34.2611 62.2603 34.3307 62.3116 34.3821C62.363 34.4334 62.4326 34.4623 62.5053 34.4623H66.495C66.5677 34.4623 66.6373 34.4334 66.6887 34.3821C66.74 34.3307 66.7688 34.2611 66.7688 34.1885V25.8792C66.7688 25.8066 66.7977 25.7369 66.849 25.6856C66.9004 25.6342 66.97 25.6054 67.0427 25.6054H74.279C74.3516 25.6054 74.4213 25.5766 74.4726 25.5252C74.524 25.4739 74.5528 25.4042 74.5528 25.3316ZM80.7711 28.0371C79.7504 28.0371 79.5269 28.4581 80.1006 29.3L80.3129 29.6129C80.9835 30.5926 81.8049 31.1906 82.7772 31.4066C84.7032 31.8313 86.4727 31.4513 88.0857 30.2667C88.127 30.2363 88.1742 30.2149 88.2242 30.204C88.2743 30.1931 88.3261 30.193 88.3762 30.2035C88.4264 30.2141 88.4737 30.2351 88.5151 30.2653C88.5566 30.2954 88.5911 30.334 88.6166 30.3784L89.8962 32.5913C89.9856 32.7477 89.9558 32.8781 89.8068 32.9824C87.5642 34.5582 85.1931 35.1673 82.6934 34.8097C78.8191 34.2509 76.5057 32.2653 75.7532 28.8529C75.2838 26.7333 75.4905 24.7477 76.3734 22.8962C79.1506 17.0736 88.3204 17.0959 90.6283 23.5276C91.1312 24.9246 91.3342 26.3402 91.2373 27.7745C91.2262 27.9496 91.133 28.0371 90.9579 28.0371H80.7711ZM79.8547 25.2543L87.242 25.2655C87.2527 25.2663 87.2635 25.2648 87.2736 25.2612C87.2838 25.2576 87.2931 25.252 87.3009 25.2447C87.3088 25.2373 87.3151 25.2284 87.3193 25.2185C87.3236 25.2087 87.3258 25.198 87.3258 25.1873V25.1481C87.327 24.3021 86.9409 23.49 86.2525 22.8906C85.564 22.2912 84.6295 21.9536 83.6545 21.9518H83.4645C82.9816 21.951 82.5032 22.0327 82.0568 22.1923C81.6104 22.352 81.2046 22.5864 80.8626 22.8821C80.5207 23.1779 80.2492 23.5293 80.0638 23.9162C79.8784 24.3031 79.7827 24.7179 79.7821 25.137V25.1761C79.782 25.1959 79.7895 25.215 79.803 25.2295C79.8165 25.244 79.835 25.2529 79.8547 25.2543ZM96.7055 29.2858C96.1318 28.4439 96.3554 28.023 97.3761 28.023L107.552 28.0453C107.727 28.0453 107.82 27.9578 107.831 27.7827C107.932 26.3484 107.732 24.9328 107.233 23.5359C104.942 17.1097 95.7779 17.065 92.9896 22.8765C92.1067 24.7279 91.8962 26.7117 92.3581 28.8276C93.1032 32.24 95.411 34.2293 99.2816 34.7955C101.778 35.1569 104.149 34.5534 106.395 32.985C106.544 32.8807 106.574 32.7504 106.484 32.5939L105.21 30.3811C105.185 30.3362 105.151 30.2971 105.11 30.2664C105.069 30.2357 105.022 30.214 104.971 30.203C104.921 30.1919 104.869 30.1915 104.819 30.202C104.769 30.2125 104.721 30.2335 104.68 30.2637C103.066 31.4446 101.297 31.8209 99.371 31.3925C98.4024 31.1764 97.5828 30.5785 96.9123 29.5988L96.7055 29.2858ZM103.852 25.2458H96.4429C96.4236 25.2458 96.4052 25.2381 96.3915 25.2245C96.3779 25.2109 96.3703 25.1924 96.3703 25.1731V25.134C96.3703 24.2922 96.7582 23.4849 97.4488 22.8897C98.1394 22.2945 99.0761 21.9601 100.053 21.9601H100.243C101.219 21.9601 102.156 22.2945 102.847 22.8897C103.537 23.4849 103.925 24.2922 103.925 25.134V25.1731C103.925 25.1924 103.917 25.2109 103.904 25.2245C103.89 25.2381 103.872 25.2458 103.852 25.2458ZM38.1118 25.5383C38.827 24.6405 39.5181 23.7445 40.1849 22.8505C40.3451 22.6381 40.2929 22.5319 40.0284 22.5319L33.5911 22.5208C33.4347 22.5208 33.3564 22.4425 33.3564 22.2861L33.362 19.291C33.362 19.1159 33.4496 19.0283 33.6247 19.0283L45.6108 19.0507C45.8119 19.0507 45.9088 19.1531 45.9013 19.358C45.8715 20.0099 45.879 20.6395 45.9237 21.2467C45.9535 21.623 45.7039 22.1706 45.1749 22.8896C44.929 23.2249 43.5991 24.905 41.1851 27.9299C40.4662 28.8277 39.7733 29.7236 39.1064 30.6177C38.9462 30.83 38.9984 30.9362 39.2629 30.9362L45.7002 30.9474C45.8566 30.9474 45.9349 31.0256 45.9349 31.1821L45.9293 34.1772C45.9293 34.3523 45.8417 34.4398 45.6666 34.4398L33.6805 34.4175C33.4794 34.4175 33.3844 34.315 33.3956 34.1101C33.4216 33.4582 33.4123 32.8286 33.3676 32.2214C33.3378 31.8452 33.5874 31.2976 34.1164 30.5786C34.3623 30.2433 35.6941 28.5632 38.1118 25.5383ZM109.023 19.055C108.967 19.1093 108.935 19.1832 108.934 19.2608L108.878 34.1806C108.877 34.2199 108.884 34.259 108.899 34.2956C108.913 34.3322 108.935 34.3655 108.963 34.3936C108.99 34.4217 109.023 34.444 109.06 34.4592C109.096 34.4745 109.135 34.4823 109.174 34.4823L115.818 34.5047C116.835 34.5084 117.843 34.3162 118.784 33.9392C119.725 33.5621 120.581 33.0075 121.303 32.3069C122.025 31.6064 122.598 30.7738 122.991 29.8565C123.384 28.9392 123.587 27.9553 123.591 26.961V26.5921C123.598 24.5841 122.789 22.6554 121.342 21.2302C119.895 19.805 117.928 19.0001 115.874 18.9926L109.23 18.9702C109.152 18.9702 109.078 19.0006 109.023 19.055ZM112.762 30.9675V22.4962C112.762 22.4654 112.768 22.4349 112.779 22.4064C112.791 22.3779 112.809 22.352 112.83 22.3302C112.852 22.3085 112.878 22.2912 112.906 22.2794C112.935 22.2676 112.965 22.2615 112.996 22.2615H115.31C116.454 22.2615 117.551 22.7136 118.36 23.5185C119.169 24.3233 119.624 25.4148 119.624 26.553V26.9107C119.624 28.0488 119.169 29.1404 118.36 29.9452C117.551 30.75 116.454 31.2022 115.31 31.2022H112.996C112.965 31.2022 112.935 31.1961 112.906 31.1843C112.878 31.1725 112.852 31.1552 112.83 31.1335C112.809 31.1117 112.791 31.0858 112.779 31.0573C112.768 31.0288 112.762 30.9983 112.762 30.9675ZM24.7597 31.4134C26.8831 31.4134 28.146 30.0555 28.0454 27.9433L28.0342 19.3099C28.0342 19.1609 28.1087 19.0864 28.2577 19.0864H31.8787C32.0166 19.0864 32.0855 19.1553 32.0855 19.2932C32.1041 21.0366 32.1078 23.7971 32.0966 27.5745C32.0892 29.4483 31.862 30.7838 31.4149 31.581C30.0068 34.09 27.4922 34.9226 24.7597 34.9226C22.0272 34.9282 19.5126 34.0956 18.1045 31.5922C17.6574 30.7913 17.4283 29.4539 17.4172 27.5801C17.4023 23.8026 17.4041 21.0422 17.4227 19.2988C17.4227 19.1609 17.4917 19.092 17.6295 19.092H21.2505C21.3995 19.092 21.474 19.1665 21.474 19.3155L21.4684 27.9489C21.3678 30.0611 22.6363 31.4134 24.7597 31.4134ZM53.9017 22.8625C53.2349 23.7603 52.5438 24.6581 51.8286 25.5559C49.4183 28.5846 48.0902 30.2665 47.8444 30.6018C47.3191 31.3208 47.0714 31.8684 47.1012 32.2446C47.1459 32.8519 47.1552 33.4814 47.1291 34.1334C47.1217 34.3383 47.2185 34.4407 47.4197 34.4407H59.4002C59.5753 34.4407 59.6628 34.3532 59.6628 34.1781V31.1829C59.6628 31.0265 59.5846 30.9482 59.4282 30.9482H52.9909C52.7264 30.9482 52.6742 30.8421 52.8344 30.6297C53.5012 29.7357 54.1923 28.8397 54.9075 27.9419C57.3178 24.9133 58.644 23.2313 58.8861 22.896C59.4151 22.1771 59.6647 21.6294 59.6349 21.2532C59.5902 20.646 59.5809 20.0164 59.607 19.3645C59.6144 19.1596 59.5176 19.0571 59.3164 19.0571H47.3359C47.1608 19.0571 47.0732 19.1447 47.0732 19.3198V22.3149C47.0732 22.4714 47.1515 22.5496 47.3079 22.5496H53.7452C54.0097 22.5496 54.0619 22.6539 53.9017 22.8625Z" fill="#9C907D"/>
</svg>
