<svg width="70" height="48" viewBox="0 0 70 48" fill="none" xmlns="http://www.w3.org/2000/svg">
<path fill-rule="evenodd" clip-rule="evenodd" d="M0.373047 9.47279V9.33704C8.74732 9.33452 17.1228 9.33452 25.4996 9.33704C26.3676 9.33704 26.989 10.1723 27.691 11.1159L27.717 11.1509C30.8394 15.3418 32.8306 17.9627 33.6904 19.0136C33.7985 19.1468 33.8538 19.128 33.8563 18.957C33.8865 16.4103 33.8877 13.983 33.8601 11.6751C33.85 10.8455 34.1127 10.1906 34.6482 9.71037C34.9926 9.40114 35.591 9.27041 36.4432 9.31818C36.6419 9.32824 38.3841 9.33452 41.6699 9.33704C42.041 9.33728 42.4022 9.45549 42.7013 9.67451C43.0003 9.89353 43.2216 10.202 43.333 10.5551L45.984 18.9306C46.0569 19.1594 46.1135 19.1556 46.1537 18.9193L47.5792 10.8002C47.6511 10.3903 47.8652 10.0189 48.1838 9.7513C48.5025 9.48368 48.9053 9.33699 49.3214 9.33704H54.8837C55.1889 9.33683 55.4857 9.43859 55.7273 9.62631C55.9689 9.81403 56.1418 10.0771 56.2187 10.3741L58.3946 18.8477C58.4424 19.0362 58.4977 19.0375 58.5605 18.8514L61.7282 9.49919C61.7415 9.46074 61.7664 9.42738 61.7996 9.40373C61.8327 9.38008 61.8723 9.36732 61.913 9.3672H69.4815C69.6122 9.3672 69.655 9.42754 69.6097 9.54822L61.468 30.7039C61.4457 30.7638 61.4055 30.8154 61.3529 30.8519C61.3003 30.8883 61.2378 30.9077 61.1739 30.9075H55.2344C55.193 30.9077 55.1527 30.894 55.1205 30.8686C55.0882 30.8432 55.0659 30.8077 55.0572 30.768L52.3043 18.5799C52.2339 18.2682 52.1648 18.2682 52.0969 18.5799L49.4232 30.8019C49.4172 30.8315 49.4012 30.8582 49.3778 30.8774C49.3545 30.8966 49.3253 30.9073 49.295 30.9075H43.2651C43.231 30.9077 43.1975 30.8969 43.1692 30.8767C43.1409 30.8564 43.119 30.8277 43.1067 30.7944L40.3161 23.6331C40.115 23.1152 40.0144 23.1341 40.0144 23.6897V30.6888C40.0144 30.8195 39.9491 30.8861 39.8183 30.8887C38.8454 30.9063 37.7166 30.8937 36.4319 30.8509C35.8059 30.8308 35.1686 30.4324 34.52 29.6555C33.9317 28.9491 31.2404 25.628 26.4462 19.6924C26.2727 19.4762 26.186 19.5063 26.186 19.7829V30.719C26.186 30.8447 26.1231 30.9075 25.9974 30.9075H20.6236C20.4728 30.9075 20.3974 30.8321 20.3974 30.6812V15.7064C20.3974 15.6504 20.3747 15.5966 20.3344 15.557C20.2941 15.5174 20.2394 15.4952 20.1824 15.4952H14.8162C14.688 15.4952 14.6239 15.5593 14.6239 15.6875V30.7981C14.6239 30.8272 14.6124 30.855 14.5919 30.8755C14.5713 30.896 14.5435 30.9075 14.5145 30.9075H8.68824C8.56253 30.9075 8.49968 30.8447 8.49968 30.719V15.6498C8.49968 15.6048 8.48141 15.5616 8.44888 15.5298C8.41634 15.498 8.37222 15.4801 8.32621 15.4801H3.28808C3.22295 15.4802 3.15938 15.4617 3.10514 15.4268C3.05089 15.392 3.00832 15.3424 2.98262 15.284L0.373047 9.47279ZM5.59871 33.21C6.2951 33.21 6.9563 33.2075 7.58229 33.2025C7.72811 33.2 7.80102 33.2716 7.80102 33.4174V33.9001C7.80102 34.0208 7.73942 34.0811 7.61623 34.0811H6.28882C6.15306 34.0811 6.08518 34.149 6.08518 34.2848V38.3839C6.08518 38.5021 6.02987 38.5788 5.91926 38.614C5.82372 38.6441 5.72316 38.6592 5.61757 38.6592C5.50444 38.6592 5.40011 38.6441 5.30457 38.614C5.19395 38.5813 5.13865 38.5059 5.13865 38.3877L5.11602 34.2886C5.11602 34.1528 5.04814 34.0849 4.91238 34.0849L3.58497 34.0925C3.46178 34.0925 3.39893 34.0321 3.39642 33.9114V33.4288C3.3939 33.2829 3.46681 33.21 3.61514 33.21C4.23862 33.2151 4.89981 33.2151 5.59871 33.21ZM26.4707 36.7276C26.3475 36.5868 26.0597 36.2198 25.6071 35.6264C25.054 34.8999 24.4482 34.1256 23.7895 33.3035C23.6763 33.1602 23.4312 33.1225 23.0541 33.1903C22.9309 33.2105 22.8693 33.2834 22.8693 33.4091V38.4623C22.8693 38.5729 22.9234 38.6282 23.0315 38.6282H23.6047C23.753 38.6282 23.8272 38.554 23.8272 38.4057V35.1513C23.8272 34.9678 23.8888 34.9451 24.012 35.0834C24.1352 35.2242 24.423 35.5925 24.8755 36.1883C25.4286 36.9149 26.0345 37.6892 26.6932 38.5113C26.8063 38.6521 27.0514 38.6885 27.4285 38.6207C27.5517 38.6006 27.6133 38.5276 27.6133 38.4019V33.3487C27.6133 33.2381 27.5593 33.1828 27.4512 33.1828H26.878C26.7296 33.1828 26.6555 33.257 26.6555 33.4053V36.6597C26.6555 36.8432 26.5939 36.8659 26.4707 36.7276ZM37.2714 35.9029C37.2714 35.9658 37.3166 36.0575 37.4071 36.1782C38.0608 37.0732 38.5799 37.8023 38.9646 38.3654C39.0853 38.5439 39.0375 38.6332 38.8213 38.6332H38.3461C38.2511 38.6333 38.1574 38.61 38.0732 38.5653C37.9891 38.5206 37.917 38.4558 37.8634 38.3767C37.4335 37.7457 37.0451 37.1901 36.6982 36.7099C36.6932 36.7049 36.6768 36.7024 36.6492 36.7024C36.619 36.7024 36.6026 36.7049 36.6001 36.7099C36.2482 37.1901 35.856 37.7445 35.4236 38.373C35.37 38.4521 35.2979 38.5168 35.2138 38.5615C35.1296 38.6062 35.0359 38.6295 34.9409 38.6294L34.4657 38.6256C34.2495 38.6256 34.2017 38.5364 34.3224 38.3579C34.7096 37.7947 35.2338 37.0669 35.8949 36.1744C35.9829 36.0538 36.0269 35.962 36.0269 35.8992C36.0269 35.8363 35.9829 35.7445 35.8949 35.6239C35.2388 34.7289 34.7184 33.9998 34.3337 33.4367C34.2131 33.2582 34.2608 33.1689 34.477 33.1689H34.9522C35.0472 33.1688 35.1409 33.1921 35.2251 33.2368C35.3092 33.2815 35.3813 33.3462 35.4349 33.4253C35.8648 34.0564 36.2545 34.6132 36.6039 35.0959C36.6064 35.0984 36.6228 35.0997 36.6529 35.0997C36.6806 35.0997 36.6957 35.0984 36.6982 35.0959C37.0501 34.6157 37.4423 34.0601 37.8748 33.4291C37.9288 33.3507 38.001 33.2867 38.0851 33.2427C38.1693 33.1986 38.2627 33.1759 38.3574 33.1765H38.8326C39.0488 33.179 39.0966 33.2682 38.9759 33.4442C38.5887 34.0073 38.0658 34.7352 37.4071 35.6276C37.3166 35.7483 37.2714 35.8401 37.2714 35.9029ZM51.9073 33.2273C51.8294 33.2072 51.7426 33.1972 51.6471 33.1972C51.5516 33.1972 51.4648 33.2072 51.3869 33.2273C51.2587 33.2575 51.1745 33.3354 51.1342 33.4611L50.0406 36.9041C50.0328 36.9266 50.0181 36.9461 49.9985 36.9597C49.979 36.9734 49.9556 36.9805 49.9318 36.9801C49.908 36.9796 49.8849 36.9717 49.8658 36.9574C49.8467 36.9431 49.8327 36.9231 49.8257 36.9003L48.6378 33.3744C48.6001 33.2638 48.5221 33.2085 48.404 33.2085H47.8082C47.6749 33.2085 47.6297 33.2713 47.6724 33.397L49.4033 38.5294C49.4184 38.5755 49.4477 38.6157 49.487 38.6441C49.5263 38.6725 49.5735 38.6878 49.622 38.6878L50.1311 38.6916C50.2694 38.6916 50.3599 38.625 50.4026 38.4917C50.7446 37.4233 51.1242 36.2907 51.5415 35.094C51.5566 35.0538 51.5918 35.0337 51.6471 35.0337C51.6999 35.0337 51.7338 35.0538 51.7489 35.094C52.1662 36.2907 52.5446 37.4233 52.884 38.4917C52.9267 38.625 53.0173 38.6916 53.1555 38.6916H53.6646C53.7131 38.6916 53.7604 38.6763 53.7997 38.6479C53.8389 38.6194 53.8682 38.5793 53.8833 38.5332L55.6218 33.4008C55.6645 33.2751 55.6193 33.2122 55.486 33.2122H54.8902C54.772 33.2122 54.6941 33.2675 54.6564 33.3782L53.4647 36.9041C53.4573 36.9267 53.4429 36.9464 53.4236 36.9604C53.4043 36.9744 53.3811 36.9819 53.3573 36.9819C53.3334 36.9819 53.3102 36.9744 53.2909 36.9604C53.2716 36.9464 53.2572 36.9267 53.2498 36.9041L52.16 33.4611C52.1197 33.3354 52.0355 33.2575 51.9073 33.2273ZM60.4901 35.9274V36.1386C60.4872 36.1986 60.4613 36.2552 60.4178 36.2966C60.3742 36.3381 60.3164 36.3611 60.2563 36.3611H57.9673C57.9163 36.3611 57.8674 36.3813 57.8313 36.4174C57.7952 36.4535 57.775 36.5024 57.775 36.5534V37.5942C57.775 37.7224 57.8403 37.7865 57.9711 37.7865H60.6862C60.8019 37.7865 60.8597 37.8456 60.8597 37.9638V38.4616C60.8597 38.5847 60.7981 38.6463 60.6749 38.6463H56.968C56.9346 38.6464 56.9025 38.6334 56.8786 38.6101C56.8547 38.5869 56.8407 38.5552 56.8397 38.5219C56.8322 37.6671 56.8272 36.8035 56.8247 35.9312C56.8247 35.0563 56.8272 34.1927 56.8322 33.3405C56.8322 33.3071 56.8452 33.275 56.8684 33.2511C56.8916 33.2272 56.9233 33.2132 56.9566 33.2122L60.6636 33.1972C60.7868 33.1972 60.8496 33.2587 60.8522 33.3819V33.8797C60.8522 33.9979 60.7943 34.057 60.6787 34.057L57.9635 34.0683C57.8328 34.0683 57.7674 34.1324 57.7674 34.2606L57.7712 35.3014C57.7712 35.327 57.7763 35.3523 57.7862 35.3759C57.7961 35.3995 57.8106 35.4208 57.8289 35.4387C57.8471 35.4567 57.8688 35.4707 57.8925 35.4802C57.9163 35.4896 57.9417 35.4942 57.9673 35.4937L60.2563 35.4862C60.3164 35.4861 60.3742 35.5092 60.4178 35.5506C60.4613 35.592 60.4872 35.6487 60.4901 35.7087V35.9274ZM12.3063 35.4617C12.2183 35.4667 11.8588 35.4705 11.2278 35.473C10.5968 35.473 10.236 35.4692 10.1455 35.4617C9.99215 35.4516 9.91547 35.3687 9.91547 35.2128L9.90793 33.4404C9.90793 33.3172 9.84759 33.243 9.72692 33.2179C9.58361 33.1877 9.39883 33.189 9.17257 33.2217C9.1282 33.2278 9.08594 33.259 9.05295 33.3099C9.01996 33.3607 8.99827 33.4282 8.99156 33.5007C8.98653 33.556 8.98527 34.3693 8.98779 35.9406C8.9903 37.5119 8.99407 38.3252 8.9991 38.3805C9.00588 38.453 9.02759 38.5203 9.06058 38.5712C9.09356 38.622 9.13579 38.6533 9.18011 38.6595C9.40637 38.6897 9.59116 38.6897 9.73446 38.6595C9.85513 38.6344 9.91547 38.5602 9.91547 38.437V36.6646C9.91547 36.5088 9.99215 36.4258 10.1455 36.4158C10.236 36.4082 10.5968 36.4044 11.2278 36.4044C11.8588 36.4019 12.2196 36.4044 12.3101 36.412C12.4634 36.422 12.5401 36.505 12.5401 36.6609L12.5439 38.4333C12.5439 38.5565 12.6042 38.6306 12.7249 38.6558C12.8682 38.6859 13.053 38.6859 13.2793 38.6558C13.3246 38.6508 13.368 38.6197 13.4018 38.568C13.4356 38.5162 13.4577 38.4472 13.464 38.3729C13.4665 38.3201 13.4678 37.5069 13.4678 35.9331C13.4653 34.3618 13.4615 33.5498 13.4565 33.497C13.4502 33.4238 13.4287 33.3556 13.3957 33.304C13.3626 33.2524 13.3201 33.2206 13.2755 33.2141C13.0492 33.184 12.8644 33.184 12.7211 33.2141C12.6005 33.2393 12.5401 33.3134 12.5401 33.4366V35.209C12.5401 35.3649 12.4622 35.4491 12.3063 35.4617ZM15.0377 35.9275C15.0377 35.0551 15.0414 34.1928 15.049 33.3405C15.0485 33.3242 15.0513 33.3079 15.0572 33.2926C15.0632 33.2773 15.0723 33.2633 15.0838 33.2514C15.0954 33.2395 15.1092 33.2299 15.1246 33.2232C15.14 33.2165 15.1566 33.2128 15.1734 33.2123L18.8766 33.2085C18.9973 33.206 19.0589 33.2663 19.0614 33.3895V33.8873C19.0614 34.0055 19.0036 34.0646 18.8879 34.0646L16.1765 34.0721C16.0483 34.0721 15.9842 34.1362 15.9842 34.2644V35.3015C15.9842 35.3525 16.0045 35.4014 16.0405 35.4375C16.0766 35.4735 16.1255 35.4938 16.1765 35.4938L18.4618 35.49C18.5213 35.4899 18.5786 35.5124 18.622 35.5531C18.6654 35.5937 18.6918 35.6494 18.6956 35.7087V35.9275V36.1386C18.6927 36.1987 18.6668 36.2553 18.6232 36.2967C18.5797 36.3381 18.5219 36.3612 18.4618 36.3611L16.1765 36.3574C16.1255 36.3574 16.0766 36.3776 16.0405 36.4137C16.0045 36.4498 15.9842 36.4987 15.9842 36.5497V37.5905C15.9842 37.7162 16.0496 37.7803 16.1803 37.7828L18.8879 37.7866C19.0036 37.7866 19.0614 37.8457 19.0614 37.9638V38.4578C19.0614 38.581 18.9998 38.6426 18.8766 38.6426L15.1772 38.6389C15.16 38.6389 15.143 38.6355 15.1272 38.629C15.1114 38.6225 15.0971 38.613 15.0851 38.6011C15.0732 38.5891 15.0638 38.575 15.0576 38.5594C15.0514 38.5439 15.0485 38.5273 15.049 38.5106C15.0414 37.6584 15.0377 36.7973 15.0377 35.9275ZM29.165 33.3401C29.16 34.1949 29.1587 35.0584 29.1612 35.9308C29.1637 36.8057 29.1688 37.6705 29.1763 38.5253C29.1768 38.5421 29.1806 38.5587 29.1875 38.5741C29.1944 38.5894 29.2043 38.6033 29.2165 38.6149C29.2288 38.6264 29.2432 38.6354 29.2589 38.6414C29.2747 38.6474 29.2915 38.6502 29.3083 38.6497L33.0153 38.646C33.1385 38.646 33.2 38.5844 33.2 38.4612V37.9634C33.2 37.8452 33.1422 37.7862 33.0266 37.7862L30.3076 37.7899C30.1769 37.7899 30.1115 37.7258 30.1115 37.5976V36.5568C30.1115 36.5058 30.1318 36.4569 30.1679 36.4208C30.2039 36.3847 30.2529 36.3645 30.3039 36.3645L32.5929 36.3607C32.653 36.3608 32.7108 36.3377 32.7544 36.2963C32.7979 36.2548 32.8238 36.1982 32.8267 36.1382C32.8292 36.1005 32.8305 36.0301 32.8305 35.927C32.8305 35.8164 32.8292 35.7422 32.8267 35.7045C32.8229 35.6452 32.7966 35.5895 32.7531 35.5489C32.7097 35.5082 32.6524 35.4857 32.5929 35.4858L30.3001 35.4934C30.2497 35.4934 30.2014 35.4736 30.1654 35.4384C30.1295 35.4031 30.1088 35.3552 30.1078 35.3048L30.104 34.264C30.104 34.1358 30.1694 34.0704 30.3001 34.0679L33.0153 34.0566C33.1309 34.0566 33.1887 33.9975 33.1887 33.8793L33.185 33.3816C33.185 33.2584 33.1234 33.1968 33.0002 33.1968L29.2932 33.2119C29.2592 33.2119 29.2266 33.2254 29.2026 33.2494C29.1785 33.2735 29.165 33.3061 29.165 33.3401ZM42.1615 38.6595C42.0484 38.6595 41.9441 38.6444 41.8486 38.6143C41.7379 38.5791 41.6826 38.5024 41.6826 38.3842L41.6562 34.2926C41.6562 34.1569 41.5883 34.089 41.4526 34.089L40.1252 34.0965C40.002 34.0991 39.9404 34.04 39.9404 33.9193L39.9366 33.4366C39.9366 33.2908 40.0095 33.2179 40.1553 33.2179C40.7788 33.2204 41.4388 33.2204 42.1352 33.2179C42.8315 33.2154 43.4927 33.2103 44.1187 33.2028C44.2645 33.2028 44.3375 33.2757 44.3375 33.4215V33.9042C44.3375 34.0249 44.2759 34.0852 44.1527 34.0852H42.829C42.6933 34.0852 42.6254 34.1531 42.6254 34.2889L42.6292 38.3805C42.6292 38.4986 42.5739 38.5753 42.4632 38.6105C42.3677 38.6407 42.2671 38.657 42.1615 38.6595ZM66.2013 36.1156L65.8958 35.9987C65.7224 35.9308 65.7035 35.834 65.8393 35.7083C67.046 34.5958 66.156 33.2307 64.7683 33.2156C64.004 33.2056 63.2134 33.2056 62.3963 33.2156C62.253 33.2181 62.1813 33.291 62.1813 33.4343V38.4159C62.1813 38.5492 62.2492 38.6183 62.385 38.6233C64.2127 38.6912 65.2673 38.6736 65.5489 38.5705C66.645 38.1658 66.958 37.438 66.4879 36.3871C66.4301 36.2564 66.3345 36.1658 66.2013 36.1156ZM63.1317 35.3123L63.1241 34.2564C63.1236 34.2297 63.1284 34.2031 63.1382 34.1782C63.1479 34.1533 63.1625 34.1306 63.1811 34.1113C63.1996 34.0921 63.2218 34.0766 63.2463 34.066C63.2709 34.0553 63.2972 34.0495 63.324 34.049L64.4478 34.0415C64.7094 34.0389 64.9612 34.1077 65.1478 34.2328C65.3344 34.358 65.4407 34.5292 65.4433 34.709V34.8145C65.4446 34.9038 65.4203 34.9925 65.3717 35.0755C65.3231 35.1586 65.2512 35.2343 65.1601 35.2984C65.069 35.3625 64.9606 35.4137 64.8409 35.4491C64.7213 35.4845 64.5928 35.5034 64.4628 35.5047L63.3391 35.5122C63.3123 35.5127 63.2857 35.5079 63.2608 35.4981C63.2359 35.4884 63.2132 35.4738 63.194 35.4552C63.1747 35.4367 63.1593 35.4145 63.1486 35.39C63.1379 35.3655 63.1321 35.3391 63.1317 35.3123ZM63.1392 37.59V36.5342C63.1392 36.4811 63.1603 36.4303 63.1977 36.3928C63.2352 36.3553 63.2861 36.3343 63.3391 36.3343L64.7909 36.3305C65.0462 36.3303 65.2912 36.4012 65.4721 36.5277C65.653 36.6542 65.7552 36.826 65.7563 37.0055V37.1036C65.7569 37.193 65.7323 37.2816 65.684 37.3643C65.6357 37.447 65.5647 37.5223 65.475 37.5857C65.3853 37.6491 65.2787 37.6995 65.1613 37.7339C65.0439 37.7683 64.918 37.786 64.7909 37.7861L63.3391 37.7899C63.2861 37.7899 63.2352 37.7689 63.1977 37.7314C63.1603 37.6939 63.1392 37.6431 63.1392 37.59Z" fill="#9C907D"/>
</svg>
